<svg width="180" height="180" viewBox="0 0 180 180" fill="none" xmlns="http://www.w3.org/2000/svg">
  <!-- Background with rounded corners for iOS -->
  <rect width="180" height="180" rx="40" fill="#030213"/>
  
  <!-- Central core -->
  <circle cx="90" cy="90" r="8" fill="#ffffff" opacity="0.9"/>
  
  <!-- Audio wave bars - larger detailed version -->
  <!-- Primary cardinal directions -->
  <line x1="90" y1="30" x2="90" y2="50" stroke="#ffffff" stroke-width="4" stroke-linecap="round" opacity="0.8"/>
  <line x1="150" y1="90" x2="130" y2="90" stroke="#ffffff" stroke-width="4" stroke-linecap="round" opacity="0.9"/>
  <line x1="90" y1="150" x2="90" y2="130" stroke="#ffffff" stroke-width="4" stroke-linecap="round" opacity="0.8"/>
  <line x1="30" y1="90" x2="50" y2="90" stroke="#ffffff" stroke-width="4" stroke-linecap="round" opacity="0.9"/>
  
  <!-- Secondary diagonal directions -->
  <line x1="127" y1="53" x2="115" y2="65" stroke="#ffffff" stroke-width="3" stroke-linecap="round" opacity="0.6"/>
  <line x1="127" y1="127" x2="115" y2="115" stroke="#ffffff" stroke-width="3" stroke-linecap="round" opacity="0.6"/>
  <line x1="53" y1="127" x2="65" y2="115" stroke="#ffffff" stroke-width="3" stroke-linecap="round" opacity="0.6"/>
  <line x1="53" y1="53" x2="65" y2="65" stroke="#ffffff" stroke-width="3" stroke-linecap="round" opacity="0.6"/>
  
  <!-- Intermediate directions -->
  <line x1="90" y1="45" x2="90" y2="55" stroke="#ffffff" stroke-width="2" stroke-linecap="round" opacity="0.5"/>
  <line x1="135" y1="90" x2="125" y2="90" stroke="#ffffff" stroke-width="2" stroke-linecap="round" opacity="0.6"/>
  <line x1="90" y1="135" x2="90" y2="125" stroke="#ffffff" stroke-width="2" stroke-linecap="round" opacity="0.5"/>
  <line x1="45" y1="90" x2="55" y2="90" stroke="#ffffff" stroke-width="2" stroke-linecap="round" opacity="0.6"/>
  
  <!-- Inner ring of smaller bars -->
  <line x1="90" y1="65" x2="90" y2="72" stroke="#ffffff" stroke-width="2" stroke-linecap="round" opacity="0.4"/>
  <line x1="115" y1="90" x2="108" y2="90" stroke="#ffffff" stroke-width="2" stroke-linecap="round" opacity="0.5"/>
  <line x1="90" y1="115" x2="90" y2="108" stroke="#ffffff" stroke-width="2" stroke-linecap="round" opacity="0.4"/>
  <line x1="65" y1="90" x2="72" y2="90" stroke="#ffffff" stroke-width="2" stroke-linecap="round" opacity="0.5"/>
  
  <!-- Subtle outer ring -->
  <line x1="90" y1="20" x2="90" y2="25" stroke="#ffffff" stroke-width="2" stroke-linecap="round" opacity="0.3"/>
  <line x1="160" y1="90" x2="155" y2="90" stroke="#ffffff" stroke-width="2" stroke-linecap="round" opacity="0.4"/>
  <line x1="90" y1="160" x2="90" y2="155" stroke="#ffffff" stroke-width="2" stroke-linecap="round" opacity="0.3"/>
  <line x1="20" y1="90" x2="25" y2="90" stroke="#ffffff" stroke-width="2" stroke-linecap="round" opacity="0.4"/>
</svg>